<?xml version="1.0" encoding="UTF-8" standalone="no"?>
<svg
   viewBox="0 0 16 16"
   version="1.1"
   id="svg1"
   sodipodi:docname="taxes-finances.svg"
   inkscape:version="1.3.2 (091e20ef0f, 2023-11-25, custom)"
   xmlns:inkscape="http://www.inkscape.org/namespaces/inkscape"
   xmlns:sodipodi="http://sodipodi.sourceforge.net/DTD/sodipodi-0.dtd"
   xmlns="http://www.w3.org/2000/svg"
   xmlns:svg="http://www.w3.org/2000/svg">
  <sodipodi:namedview
     id="namedview1"
     pagecolor="#505050"
     bordercolor="#ffffff"
     borderopacity="1"
     inkscape:showpageshadow="0"
     inkscape:pageopacity="0"
     inkscape:pagecheckerboard="1"
     inkscape:deskcolor="#d1d1d1"
     inkscape:zoom="72.375"
     inkscape:cx="8"
     inkscape:cy="9.119171"
     inkscape:window-width="2560"
     inkscape:window-height="1362"
     inkscape:window-x="0"
     inkscape:window-y="0"
     inkscape:window-maximized="1"
     inkscape:current-layer="svg1" />
  <defs
     id="defs3051">
    <style
       type="text/css"
       id="current-color-scheme">
      .ColorScheme-Text {
        color:#eff0f1;
      }
      </style>
  </defs>
  <path
     style="fill:currentColor;fill-opacity:1;stroke:none"
     d="m 6.49975,2 v 1.125 c -0.842895,0.078167 -1.5071061,0.2908583 -2,0.6875 -0.54239,0.4322 -0.8125,1.07152 -0.8125,1.90625 0,1.16527 0.69704,1.92109 2.125,2.28125 l 0.6875,0.1875 v 3.6875 c -0.8871702,-0.07929 -1.7187431,-0.273366 -2.5,-0.65625 L 3.656,12.125 c 0.31778,0.19491 0.7516,0.3787 1.28125,0.53125 0.4648232,0.129113 0.9884807,0.18598 1.5625,0.21875 V 14 h 0.25 0.59375 0.15625 V 12.875 C 8.349561,12.806571 9.03312,12.547817 9.531,12.09375 10.0649,11.61071 10.34349,10.91102 10.3435,10 10.34349,9.26271 10.1438,8.7108 9.74975,8.3125 9.35567,7.90995 8.76245,7.61971 7.99975,7.4375 l -0.5,-0.125 v -3.25 c 0.3855531,0.028944 0.78709,0.083097 1.15625,0.1875 0.42373,0.11442 0.74151,0.26219 1,0.40625 L 9.9685,3.75 C 9.328233,3.3513511 8.507363,3.1129214 7.49975,3.0625 V 2 H 7.3435 6.74975 Z M 6.281,4.09375 c 0.065458,-0.010982 0.1489476,0.00794 0.21875,0 V 7.0625 L 6.2185,7 C 5.74816,6.8856 5.39328,6.71611 5.156,6.5 4.92295,6.27967 4.81224,5.98518 4.81225,5.625 4.8122412,4.76855 5.2947699,4.2592177 6.281,4.09375 Z m 1.21875,4.3125 0.1875,0.0625 c 0.57626,0.14407 0.97139,0.33952 1.1875,0.59375 0.22034,0.25001 0.31249,0.59323 0.3125,1 -1e-5,1.13306 -0.5629367,1.734764 -1.6875,1.84375 z"
     class="ColorScheme-Text"
     id="path1" />
  <path
     d="m 10.5,6 a 0.5,0.5002376 0 0 0 -0.443359,0.2714844 0.5,0.5002376 0 0 1 -0.002,0 h -0.002 L 6.0664062,13.248047 h 0.00195 A 0.5,0.5002376 0 0 0 6,13.5 0.5,0.5002376 0 0 0 6.5,14 h 8 A 0.5,0.5002376 0 0 0 15,13.5 0.5,0.5002376 0 0 0 14.93164,13.248047 h 0.002 L 10.947266,6.2695312 h -0.0039 A 0.5,0.5002376 0 0 0 10.503906,6 Z"
     style="color:#f67400;fill:currentColor;fill-opacity:1;stroke:none"
     class="ColorScheme-NeutralText"
     id="path2" />
  <path
     style="fill:#ffffff"
     d="m 10,8.0039062 v 2.9999998 h 1 V 8.0039062 Z m 0,3.9999998 v 0.002 1 h 1 v -1 -0.002 z"
     id="path3" />
</svg>
