<?xml version="1.0" encoding="UTF-8" standalone="no"?>
<svg
   viewBox="0 0 22 22"
   version="1.1"
   id="svg1"
   sodipodi:docname="network-workgroup.svg"
   inkscape:version="1.3.2 (091e20ef0f, 2023-11-25, custom)"
   xmlns:inkscape="http://www.inkscape.org/namespaces/inkscape"
   xmlns:sodipodi="http://sodipodi.sourceforge.net/DTD/sodipodi-0.dtd"
   xmlns="http://www.w3.org/2000/svg"
   xmlns:svg="http://www.w3.org/2000/svg">
  <sodipodi:namedview
     id="namedview1"
     pagecolor="#505050"
     bordercolor="#ffffff"
     borderopacity="1"
     inkscape:showpageshadow="0"
     inkscape:pageopacity="0"
     inkscape:pagecheckerboard="1"
     inkscape:deskcolor="#d1d1d1"
     inkscape:zoom="64"
     inkscape:cx="10.75"
     inkscape:cy="5.46875"
     inkscape:window-width="2560"
     inkscape:window-height="1362"
     inkscape:window-x="0"
     inkscape:window-y="0"
     inkscape:window-maximized="1"
     inkscape:current-layer="svg1" />
  <defs
     id="defs3051">
    <inkscape:path-effect
       effect="fillet_chamfer"
       id="path-effect1"
       is_visible="true"
       lpeversion="1"
       nodesatellites_param="F,0,0,1,0,2.2113991,0,1 @ F,0,0,1,0,2.2488812,0,1 @ F,0,0,1,0,2.2076717,0,1 @ F,0,0,1,0,2.3828126,0,1"
       radius="0"
       unit="px"
       method="auto"
       mode="F"
       chamfer_steps="1"
       flexible="false"
       use_knot_distance="true"
       apply_no_radius="true"
       apply_with_radius="true"
       only_selected="false"
       hide_knots="false" />
    <style
       type="text/css"
       id="current-color-scheme">
      .ColorScheme-Text {
        color:#232629
      }
      </style>
  </defs>
  <path
     style="fill:#ffffff;stroke-width:1.03209"
     id="rect1"
     width="22"
     height="22"
     x="0"
     y="0"
     inkscape:path-effect="#path-effect1"
     sodipodi:type="rect"
     d="M 2.2113991,0 H 19.751119 A 2.2488812,2.2488812 45 0 1 22,2.2488812 V 19.792328 A 2.2076717,2.2076717 135 0 1 19.792328,22 H 2.3828126 A 2.3828126,2.3828126 45 0 1 0,19.617187 V 2.2113991 A 2.2113991,2.2113991 135 0 1 2.2113991,0 Z" />
  <path
     style="fill:currentColor"
     d="M 3 3 L 3 19 L 19 19 L 19 3 L 3 3 z M 14 4 L 18 4 L 18 5 L 14 5 L 14 4 z M 4 7 L 18 7 L 18 8 L 4 8 L 4 7 z M 14 10 L 18 10 L 18 11 L 14 11 L 14 10 z M 4 13 L 18 13 L 18 14 L 4 14 L 4 13 z M 14 16 L 18 16 L 18 17 L 14 17 L 14 16 z "
     class="ColorScheme-Text"
     id="path1" />
</svg>
